<?xml version="1.0" encoding="UTF-8"?><svg id="Layer_1" xmlns="http://www.w3.org/2000/svg" xmlns:xlink="http://www.w3.org/1999/xlink" viewBox="0 0 775.34 725.82"><defs><style>.cls-1{clip-path:url(#clippath);}.cls-2,.cls-3,.cls-4{fill:none;}.cls-2,.cls-5,.cls-6,.cls-7,.cls-8{stroke-width:0px;}.cls-9{clip-path:url(#clippath-1);}.cls-10{clip-path:url(#clippath-4);}.cls-11{clip-path:url(#clippath-3);}.cls-12{clip-path:url(#clippath-2);}.cls-13{clip-path:url(#clippath-7);}.cls-14{clip-path:url(#clippath-8);}.cls-15{clip-path:url(#clippath-6);}.cls-16{clip-path:url(#clippath-5);}.cls-17{clip-path:url(#clippath-9);}.cls-18{font-family:Courier-Bold, Courier;font-size:140px;font-weight:700;}.cls-3{stroke:#000;}.cls-3,.cls-4{stroke-width:.75px;}.cls-4{stroke:#004d80;}.cls-5{fill:#1db100;}.cls-6{fill:#99195e;}.cls-7{fill:#fff;}.cls-8{fill:#fffc66;}</style><clipPath id="clippath"><rect class="cls-2" y="124.11" width="155.78" height="153.75"/></clipPath><clipPath id="clippath-1"><rect class="cls-2" x="156.04" y="124.11" width="155.78" height="153.75"/></clipPath><clipPath id="clippath-2"><rect class="cls-2" x="307.49" y="124.11" width="155.78" height="153.75"/></clipPath><clipPath id="clippath-3"><rect class="cls-2" x="156.04" y="269.97" width="155.78" height="153.75"/></clipPath><clipPath id="clippath-4"><rect class="cls-2" x="307.49" y="269.97" width="155.78" height="153.75"/></clipPath><clipPath id="clippath-5"><rect class="cls-2" x="465.82" y="269.97" width="155.78" height="153.75"/></clipPath><clipPath id="clippath-6"><rect class="cls-2" x="619.56" y="269.97" width="155.78" height="153.75"/></clipPath><clipPath id="clippath-7"><rect class="cls-2" x="309.78" y="419.46" width="155.78" height="153.75"/></clipPath><clipPath id="clippath-8"><rect class="cls-2" x="465.82" y="419.46" width="155.78" height="153.75"/></clipPath><clipPath id="clippath-9"><rect class="cls-2" x="619.56" y="419.46" width="155.78" height="153.75"/></clipPath></defs><rect class="cls-8" x="166.93" y="148.41" width="134" height="134"/><rect class="cls-4" x="166.93" y="148.41" width="134" height="134"/><rect class="cls-8" x="320.67" y="148.41" width="134" height="134"/><rect class="cls-4" x="320.67" y="148.41" width="134" height="134"/><rect class="cls-8" x="166.93" y="296.09" width="134" height="134"/><rect class="cls-4" x="166.93" y="296.09" width="134" height="134"/><rect class="cls-8" x="320.67" y="296.09" width="134" height="134"/><rect class="cls-4" x="320.67" y="296.09" width="134" height="134"/><rect class="cls-8" x="474.41" y="296.09" width="134" height="134"/><rect class="cls-3" x="474.41" y="296.09" width="134" height="134"/><rect class="cls-5" x="166.93" y="443.77" width="134" height="134"/><rect class="cls-3" x="166.93" y="443.77" width="134" height="134"/><rect class="cls-8" x="320.67" y="443.77" width="134" height="134"/><rect class="cls-3" x="320.67" y="443.77" width="134" height="134"/><rect class="cls-5" x="320.67" y="591.44" width="134" height="134"/><rect class="cls-3" x="320.67" y="591.44" width="134" height="134"/><rect class="cls-7" x="628.16" y="148.41" width="134" height="134"/><rect class="cls-3" x="628.16" y="148.41" width="134" height="134"/><rect class="cls-8" x="628.16" y="443.77" width="134" height="134"/><rect class="cls-3" x="628.16" y="443.77" width="134" height="134"/><rect class="cls-6" x="474.41" y="148.41" width="134" height="134"/><rect class="cls-3" x="474.41" y="148.41" width="134" height="134"/><rect class="cls-8" x="474.41" y="443.77" width="134" height="134"/><rect class="cls-3" x="474.41" y="443.77" width="134" height="134"/><rect class="cls-7" x="166.93" y="591.44" width="134" height="134"/><rect class="cls-3" x="166.93" y="591.44" width="134" height="134"/><rect class="cls-5" x="474.41" y="591.44" width="134" height="134"/><rect class="cls-3" x="474.41" y="591.44" width="134" height="134"/><rect class="cls-8" x="628.16" y="296.09" width="134" height="134"/><rect class="cls-3" x="628.16" y="296.09" width="134" height="134"/><rect class="cls-5" x="628.16" y="591.44" width="134" height="134"/><rect class="cls-3" x="628.16" y="591.44" width="134" height="134"/><rect class="cls-6" x="10.89" y=".37" width="134" height="134"/><rect class="cls-3" x="10.89" y=".38" width="134" height="134"/><rect class="cls-7" x="164.63" y=".37" width="134" height="134"/><rect class="cls-3" x="164.63" y=".38" width="134" height="134"/><rect class="cls-7" x="318.37" y=".37" width="134" height="134"/><rect class="cls-3" x="318.37" y=".38" width="134" height="134"/><rect class="cls-7" x="472.11" y=".37" width="134" height="134"/><rect class="cls-3" x="472.11" y=".38" width="134" height="134"/><rect class="cls-8" x="10.89" y="148.05" width="134" height="134"/><rect class="cls-3" x="10.89" y="148.05" width="134" height="134"/><rect class="cls-7" x="10.89" y="295.73" width="134" height="134"/><rect class="cls-3" x="10.89" y="295.73" width="134" height="134"/><rect class="cls-7" x="10.89" y="443.41" width="134" height="134"/><rect class="cls-3" x="10.89" y="443.41" width="134" height="134"/><rect class="cls-7" x="10.89" y="591.08" width="134" height="134"/><rect class="cls-3" x="10.89" y="591.08" width="134" height="134"/><rect class="cls-7" x="628.16" y=".73" width="134" height="134"/><rect class="cls-3" x="628.16" y=".73" width="134" height="134"/><g class="cls-1"><text class="cls-18" transform="translate(35.88 257.66)"><tspan x="0" y="0">E</tspan></text></g><g class="cls-9"><text class="cls-18" transform="translate(191.92 257.66)"><tspan x="0" y="0">C</tspan></text></g><g class="cls-12"><text class="cls-18" transform="translate(343.37 257.66)"><tspan x="0" y="0">O</tspan></text></g><g class="cls-11"><text class="cls-18" transform="translate(191.92 403.52)"><tspan x="0" y="0">C</tspan></text></g><g class="cls-10"><text class="cls-18" transform="translate(343.37 403.52)"><tspan x="0" y="0">O</tspan></text></g><g class="cls-16"><text class="cls-18" transform="translate(501.7 403.52)"><tspan x="0" y="0">M</tspan></text></g><g class="cls-15"><text class="cls-18" transform="translate(655.45 403.52)"><tspan x="0" y="0">P</tspan></text></g><g class="cls-13"><text class="cls-18" transform="translate(345.66 553.01)"><tspan x="0" y="0">L</tspan></text></g><g class="cls-14"><text class="cls-18" transform="translate(501.7 553.01)"><tspan x="0" y="0">A</tspan></text></g><g class="cls-17"><text class="cls-18" transform="translate(655.45 553.01)"><tspan x="0" y="0">B</tspan></text></g></svg>